<svg width="179" height="179" viewBox="0 0 179 179" fill="none" xmlns="http://www.w3.org/2000/svg">
<path d="M74.583 55.9375L89.4997 70.8542L104.416 55.9375" stroke="#FFCD00" stroke-width="10" stroke-linecap="round" stroke-linejoin="round"/>
<path d="M104.416 123.063L89.4997 108.146L74.583 123.063M89.4997 70.8545V29.8337C89.4997 25.8775 91.0713 22.0834 93.8687 19.286C96.6661 16.4886 100.46 14.917 104.416 14.917H149.166C153.122 14.917 156.917 16.4886 159.714 19.286C162.511 22.0834 164.083 25.8775 164.083 29.8337V70.8545H89.4997Z" stroke="#FFCD00" stroke-width="10" stroke-linecap="round" stroke-linejoin="round"/>
<path d="M123.062 74.584L108.146 89.5007L123.062 104.417M89.4998 108.146V149.167C89.4998 153.123 87.9283 156.918 85.1308 159.715C82.3334 162.512 78.5393 164.084 74.5832 164.084H29.8332C25.877 164.084 22.0829 162.512 19.2855 159.715C16.4881 156.918 14.9165 153.123 14.9165 149.167V108.146H89.4998Z" stroke="#FFCD00" stroke-width="10" stroke-linecap="round" stroke-linejoin="round"/>
<path d="M55.9375 104.417L70.8542 89.5007L55.9375 74.584M108.146 89.5007H149.167C153.123 89.5007 156.917 91.0722 159.714 93.8696C162.512 96.6671 164.083 100.461 164.083 104.417V149.167C164.083 153.123 162.512 156.918 159.714 159.715C156.917 162.512 153.123 164.084 149.167 164.084H108.146V89.5007Z" stroke="#FFCD00" stroke-width="10" stroke-linecap="round" stroke-linejoin="round"/>
<path d="M70.854 89.5003H29.8332C25.877 89.5003 22.0829 87.9287 19.2855 85.1313C16.4881 82.3339 14.9165 78.5398 14.9165 74.5837V29.8337C14.9165 25.8775 16.4881 22.0834 19.2855 19.286C22.0829 16.4886 25.877 14.917 29.8332 14.917H70.854" stroke="#FFCD00" stroke-width="10" stroke-linecap="round" stroke-linejoin="round"/>
</svg>
