<svg width="141" height="141" viewBox="0 0 141 141" fill="none" xmlns="http://www.w3.org/2000/svg">
<g filter="url(#filter0_d_0_861)">
<path d="M114.689 69.4668H102.454C100.788 69.4668 99.176 69.6943 97.6416 70.1128C94.6147 64.1626 88.4351 60.0742 81.3142 60.0742H59.6858C52.5649 60.0742 46.3853 64.1626 43.3584 70.1128C41.824 69.6943 40.2117 69.4668 38.5464 69.4668H26.3105C16.2141 69.4668 8 77.6809 8 87.7773V107.337C8 113.395 12.9285 118.324 18.9863 118.324H122.014C128.072 118.324 133 113.395 133 107.337V87.7773C133 77.6809 124.786 69.4668 114.689 69.4668ZM41.3752 78.3853V111H18.9863C16.967 111 15.3242 109.357 15.3242 107.338V87.7776C15.3242 81.7197 20.2527 76.7913 26.3105 76.7913H38.5464C39.5405 76.7913 40.5032 76.9263 41.4197 77.1751C41.3933 77.5757 41.3752 77.9785 41.3752 78.3853ZM92.3005 111H48.6995V78.385C48.6995 72.3272 53.6279 67.3987 59.6858 67.3987H81.3142C87.3721 67.3987 92.3005 72.3272 92.3005 78.385V111ZM125.676 107.338C125.676 109.357 124.033 111 122.014 111H99.6248V78.385C99.6248 77.978 99.6067 77.5752 99.5803 77.1748C100.497 76.9263 101.459 76.791 102.454 76.791H114.689C120.747 76.791 125.676 81.7195 125.676 87.7773V107.338Z" fill="#FFCD00"/>
<path d="M32.4287 34.8848C23.4568 34.8848 16.1577 42.1838 16.1577 51.1558C16.1575 60.1277 23.4568 67.4268 32.4287 67.4268C41.4004 67.4268 48.6997 60.1277 48.6997 51.1558C48.6997 42.1838 41.4006 34.8848 32.4287 34.8848ZM32.4285 60.1025C27.4951 60.1025 23.4817 56.0891 23.4817 51.1558C23.4817 46.2224 27.4951 42.209 32.4285 42.209C37.3618 42.209 41.3752 46.2224 41.3752 51.1558C41.3752 56.0891 37.3618 60.1025 32.4285 60.1025Z" fill="#FFCD00"/>
<path d="M70.5 14.6763C58.5137 14.6763 48.7622 24.4277 48.7622 36.4141C48.7622 48.4004 58.5137 58.1519 70.5 58.1519C82.4863 58.1519 92.2378 48.4004 92.2378 36.4141C92.2378 24.428 82.4863 14.6763 70.5 14.6763ZM70.5 50.8276C62.5522 50.8276 56.0864 44.3618 56.0864 36.4141C56.0864 28.4666 62.5522 22.0005 70.5 22.0005C78.4478 22.0005 84.9136 28.4663 84.9136 36.4141C84.9136 44.3618 78.4478 50.8276 70.5 50.8276Z" fill="#FFCD00"/>
<path d="M108.571 34.8848C99.5996 34.8848 92.3003 42.1838 92.3003 51.1558C92.3005 60.1277 99.5996 67.4268 108.571 67.4268C117.543 67.4268 124.842 60.1277 124.842 51.1558C124.842 42.1838 117.543 34.8848 108.571 34.8848ZM108.571 60.1025C103.638 60.1025 99.6245 56.0891 99.6245 51.1558C99.6248 46.2224 103.638 42.209 108.571 42.209C113.505 42.209 117.518 46.2224 117.518 51.1558C117.518 56.0891 113.505 60.1025 108.571 60.1025Z" fill="#FFCD00"/>
</g>
<defs>
<filter id="filter0_d_0_861" x="0" y="0" width="141" height="141" filterUnits="userSpaceOnUse" color-interpolation-filters="sRGB">
<feFlood flood-opacity="0" result="BackgroundImageFix"/>
<feColorMatrix in="SourceAlpha" type="matrix" values="0 0 0 0 0 0 0 0 0 0 0 0 0 0 0 0 0 0 127 0" result="hardAlpha"/>
<feOffset dy="4"/>
<feGaussianBlur stdDeviation="4"/>
<feComposite in2="hardAlpha" operator="out"/>
<feColorMatrix type="matrix" values="0 0 0 0 1 0 0 0 0 0.8 0 0 0 0 0 0 0 0 0.25 0"/>
<feBlend mode="normal" in2="BackgroundImageFix" result="effect1_dropShadow_0_861"/>
<feBlend mode="normal" in="SourceGraphic" in2="effect1_dropShadow_0_861" result="shape"/>
</filter>
</defs>
</svg>
