<svg width="179" height="179" viewBox="0 0 179 179" fill="none" xmlns="http://www.w3.org/2000/svg">
<path d="M52.2082 55.9372C72.8038 55.9372 89.4998 47.5892 89.4998 37.2913C89.4998 26.9935 72.8038 18.6455 52.2082 18.6455C31.6126 18.6455 14.9165 26.9935 14.9165 37.2913C14.9165 47.5892 31.6126 55.9372 52.2082 55.9372Z" stroke="#FFCD00" stroke-width="10" stroke-linecap="round" stroke-linejoin="round"/>
<path d="M14.9165 37.291V63.3952C14.9165 73.6914 31.612 82.041 52.2082 82.041C72.8044 82.041 89.4998 73.6914 89.4998 63.3952V37.291" stroke="#FFCD00" stroke-width="10" stroke-linecap="round" stroke-linejoin="round"/>
<path d="M14.9165 63.3955V89.4997C14.9165 99.7959 31.612 108.146 52.2082 108.146C72.8044 108.146 89.4998 99.7959 89.4998 89.4997V63.3955" stroke="#FFCD00" stroke-width="10" stroke-linecap="round" stroke-linejoin="round"/>
<path d="M14.9165 89.5V115.604C14.9165 125.9 31.612 134.25 52.2082 134.25C72.8044 134.25 89.4998 125.9 89.4998 115.604V89.5" stroke="#FFCD00" stroke-width="10" stroke-linecap="round" stroke-linejoin="round"/>
<path d="M14.9165 115.604V141.708C14.9165 152.004 31.612 160.353 52.2082 160.353C72.8044 160.353 89.4998 152.004 89.4998 141.708V115.604" stroke="#FFCD00" stroke-width="10" stroke-linecap="round" stroke-linejoin="round"/>
<path d="M126.792 108.145C147.387 108.145 164.083 99.7972 164.083 89.4994C164.083 79.2015 147.387 70.8535 126.792 70.8535C106.196 70.8535 89.5 79.2015 89.5 89.4994C89.5 99.7972 106.196 108.145 126.792 108.145Z" stroke="#FFCD00" stroke-width="10" stroke-linecap="round" stroke-linejoin="round"/>
<path d="M89.5 89.5V115.604C89.5 125.9 106.195 134.25 126.792 134.25C147.388 134.25 164.083 125.9 164.083 115.604V89.5" stroke="#FFCD00" stroke-width="10" stroke-linecap="round" stroke-linejoin="round"/>
<path d="M89.5 115.604V141.708C89.5 152.004 106.195 160.353 126.792 160.353C147.388 160.353 164.083 152.004 164.083 141.708V115.604" stroke="#FFCD00" stroke-width="10" stroke-linecap="round" stroke-linejoin="round"/>
</svg>
