<svg width="119" height="119" viewBox="0 0 119 119" fill="none" xmlns="http://www.w3.org/2000/svg">
<g filter="url(#filter0_d_0_878)">
<g clip-path="url(#clip0_0_878)">
<path d="M107.982 107H11.0176C9.35106 107 8 105.649 8 103.982C8 102.316 9.35106 100.965 11.0176 100.965H107.982C109.648 100.965 110.999 102.316 110.999 103.982C110.999 105.649 109.648 107 107.982 107Z" fill="#FFCD00"/>
<path d="M29.3241 107H17.2539C15.5874 107 14.2363 105.649 14.2363 103.982V81.8535C14.2363 79.0803 16.4925 76.8242 19.2656 76.8242H27.3124C30.0855 76.8242 32.3417 79.0803 32.3417 81.8535V103.982C32.3417 105.649 30.9906 107 29.3241 107ZM20.2714 100.965H26.3065V82.8593H20.2714V100.965ZM27.3124 82.8593H27.3144H27.3124Z" fill="#FFCD00"/>
<path d="M53.4647 107H41.3945C39.728 107 38.377 105.649 38.377 103.983V74.6118C38.377 71.8386 40.6331 69.5825 43.4062 69.5825H51.453C54.2262 69.5825 56.4823 71.8386 56.4823 74.6118V103.983C56.4823 105.649 55.1312 107 53.4647 107ZM44.4121 100.965H50.4472V75.6176H44.4121V100.965ZM51.453 75.6176H51.455H51.453Z" fill="#FFCD00"/>
<path d="M77.6049 107H65.5346C63.8681 107 62.5171 105.649 62.5171 103.983V63.5473C62.5171 60.7742 64.7732 58.5181 67.5463 58.5181H75.5932C78.3663 58.5181 80.6224 60.7742 80.6224 63.5473V103.983C80.6224 105.649 79.2714 107 77.6049 107ZM68.5522 100.965H74.5873V64.5532H68.5522V100.965Z" fill="#FFCD00"/>
<path d="M101.745 107H89.6753C88.0088 107 86.6577 105.649 86.6577 103.982V43.4301C86.6577 40.657 88.9138 38.4009 91.687 38.4009H99.7338C102.507 38.4009 104.763 40.657 104.763 43.4301V103.982C104.763 105.649 103.412 107 101.745 107ZM92.6928 100.965H98.7279V44.436H92.6928V100.965ZM99.7338 44.436H99.7358H99.7338Z" fill="#FFCD00"/>
<path d="M11.0176 68.8391C9.35106 68.8391 8 67.488 8 65.8215C8 64.1551 9.35106 62.804 11.0176 62.804C28.762 62.804 48.082 56.3424 65.4182 44.6095C81.3672 33.8157 94.0759 19.6654 100.286 5.78689C100.966 4.26564 102.751 3.58407 104.272 4.26503C105.794 4.94559 106.475 6.73058 105.794 8.25183C99.1384 23.1278 85.6547 38.2015 68.8009 49.6076C50.4765 62.0092 29.9551 68.8391 11.0176 68.8391Z" fill="#FFCD00"/>
<path d="M107.98 28.4778C106.647 28.4778 105.428 27.5886 105.067 26.2404L100.907 10.7139L85.3803 14.8743C83.77 15.306 82.1159 14.3504 81.6846 12.7407C81.2533 11.1309 82.2085 9.47628 83.8182 9.04497L102.26 4.10362C103.87 3.67211 105.524 4.62767 105.955 6.23724L110.897 24.6785C111.328 26.2883 110.373 27.9429 108.763 28.3742C108.501 28.4442 108.239 28.4778 107.98 28.4778V28.4778Z" fill="#FFCD00"/>
</g>
</g>
<defs>
<filter id="filter0_d_0_878" x="0" y="0" width="119" height="119" filterUnits="userSpaceOnUse" color-interpolation-filters="sRGB">
<feFlood flood-opacity="0" result="BackgroundImageFix"/>
<feColorMatrix in="SourceAlpha" type="matrix" values="0 0 0 0 0 0 0 0 0 0 0 0 0 0 0 0 0 0 127 0" result="hardAlpha"/>
<feOffset dy="4"/>
<feGaussianBlur stdDeviation="4"/>
<feComposite in2="hardAlpha" operator="out"/>
<feColorMatrix type="matrix" values="0 0 0 0 1 0 0 0 0 0.8 0 0 0 0 0 0 0 0 0.25 0"/>
<feBlend mode="normal" in2="BackgroundImageFix" result="effect1_dropShadow_0_878"/>
<feBlend mode="normal" in="SourceGraphic" in2="effect1_dropShadow_0_878" result="shape"/>
</filter>
<clipPath id="clip0_0_878">
<rect width="103" height="103" fill="white" transform="translate(8 4)"/>
</clipPath>
</defs>
</svg>
